<svg id="SvgjsSvg1080" width="288" height="288" xmlns="http://www.w3.org/2000/svg" version="1.1" xmlns:xlink="http://www.w3.org/1999/xlink" xmlns:svgjs="http://svgjs.com/svgjs"><defs id="SvgjsDefs1081"></defs><g id="SvgjsG1082"><svg xmlns="http://www.w3.org/2000/svg" fill="none" viewBox="0 0 128 128" width="288" height="288"><path fill="#ffffff" d="M64 128c35.346 0 64-28.654 64-64 0-35.346-28.654-64-64-64C28.654 0 0 28.654 0 64c0 35.346 28.654 64 64 64Z" filter="url(#a)" class="colorF2994A svgShape"></path><g fill="#ffffff" filter="url(#b)" class="colorfff svgShape"><path d="M39.337 66.082h-6.17v6.17h6.17v-6.17zm0 10.796h-6.17v6.169h6.17v-6.17zm0 10.795h-6.17v6.17h6.17v-6.17zm55.507-21.59h-6.17v6.169h6.17v-6.17zm0 10.794h-6.17v6.17h6.17v-6.17zm0 10.796h-6.17v6.17h6.17v-6.17zM72.19 31.783l-4.608-.67-2.058-4.175c-.625-1.26-2.417-1.26-3.042 0l-2.058 4.175-4.608.67c-1.394.203-1.95 1.914-.943 2.891l3.33 3.25-.786 4.585c-.237 1.388 1.214 2.44 2.463 1.787l4.117-2.169 4.117 2.169c1.243.653 2.7-.405 2.463-1.787l-.786-4.585 3.33-3.25c1.012-.977.457-2.688-.93-2.89zm12.946 4.239-3.07-.446-1.37-2.78a1.133 1.133 0 0 0-2.03 0l-1.37 2.78-3.07.446c-.925.133-1.296 1.272-.625 1.93l2.22 2.169-.526 3.059c-.156.925.81 1.63 1.642 1.19l2.747-1.445 2.746 1.446c.827.433 1.798-.266 1.642-1.191l-.526-3.059 2.22-2.168c.671-.66.301-1.799-.63-1.931zm-31.356 0-3.07-.446-1.37-2.78a1.133 1.133 0 0 0-2.03 0l-1.37 2.78-3.07.446c-.926.133-1.296 1.272-.625 1.93l2.22 2.169-.526 3.059c-.156.925.81 1.63 1.642 1.19l2.747-1.445 2.746 1.446c.827.433 1.798-.266 1.642-1.191l-.526-3.059 2.22-2.168c.671-.66.301-1.799-.63-1.931z" fill="#728dd4" class="color000 svgShape"></path><path d="M99.464 59.919h-9.251a1.544 1.544 0 1 0 0 3.087h7.708V96.93H85.587V47.58H42.413v49.338H30.08V62.995h7.707a1.544 1.544 0 1 0 0-3.088h-9.251c-.85 0-1.544.688-1.544 1.544v37.005c0 .85.688 1.544 1.544 1.544h70.928c.85 0 1.544-.688 1.544-1.544V61.451c0-.844-.688-1.532-1.544-1.532ZM56.295 96.924V78.42h15.421v18.503h-15.42ZM68.63 52.205h9.25a1.544 1.544 0 1 1 0 3.088h-9.25a1.544 1.544 0 1 1 0-3.087Zm0 7.714h9.25a1.544 1.544 0 1 1 0 3.087h-9.25a1.544 1.544 0 1 1 0-3.087Zm0 7.707h9.25a1.544 1.544 0 1 1 0 3.088h-9.25a1.544 1.544 0 1 1 0-3.088Zm-18.503-15.42h9.251a1.544 1.544 0 1 1 0 3.087h-9.251a1.544 1.544 0 1 1 0-3.087Zm0 7.713h9.251a1.544 1.544 0 1 1 0 3.087h-9.251a1.544 1.544 0 1 1 0-3.087Zm0 7.707h9.251a1.544 1.544 0 1 1 0 3.088h-9.251a1.544 1.544 0 1 1 0-3.088Z" fill="#728dd4" class="color000 svgShape"></path></g><defs><filter id="a" width="128" height="138" x="0" y="-4" color-interpolation-filters="sRGB" filterUnits="userSpaceOnUse"><feFlood flood-opacity="0" result="BackgroundImageFix"></feFlood><feBlend in="SourceGraphic" in2="BackgroundImageFix" result="shape"></feBlend><feColorMatrix in="SourceAlpha" result="hardAlpha" values="0 0 0 0 0 0 0 0 0 0 0 0 0 0 0 0 0 0 127 0"></feColorMatrix><feOffset dy="6"></feOffset><feGaussianBlur stdDeviation="3"></feGaussianBlur><feComposite in2="hardAlpha" k2="-1" k3="1" operator="arithmetic"></feComposite><feColorMatrix values="0 0 0 0 1 0 0 0 0 1 0 0 0 0 1 0 0 0 0.6 0"></feColorMatrix><feBlend in2="shape" result="effect1_innerShadow"></feBlend><feColorMatrix in="SourceAlpha" result="hardAlpha" values="0 0 0 0 0 0 0 0 0 0 0 0 0 0 0 0 0 0 127 0"></feColorMatrix><feOffset dy="-4"></feOffset><feGaussianBlur stdDeviation="3"></feGaussianBlur><feComposite in2="hardAlpha" k2="-1" k3="1" operator="arithmetic"></feComposite><feColorMatrix values="0 0 0 0 0 0 0 0 0 0 0 0 0 0 0 0 0 0 0.15 0"></feColorMatrix><feBlend in2="effect1_innerShadow" result="effect2_innerShadow"></feBlend></filter><filter id="b" width="88.016" height="88.007" x="19.992" y="20.992" color-interpolation-filters="sRGB" filterUnits="userSpaceOnUse"><feFlood flood-opacity="0" result="BackgroundImageFix"></feFlood><feColorMatrix in="SourceAlpha" values="0 0 0 0 0 0 0 0 0 0 0 0 0 0 0 0 0 0 127 0"></feColorMatrix><feOffset dy="2"></feOffset><feGaussianBlur stdDeviation="3.5"></feGaussianBlur><feColorMatrix values="0 0 0 0 0 0 0 0 0 0 0 0 0 0 0 0 0 0 0.25 0"></feColorMatrix><feBlend in2="BackgroundImageFix" result="effect1_dropShadow"></feBlend><feBlend in="SourceGraphic" in2="effect1_dropShadow" result="shape"></feBlend></filter></defs></svg></g></svg>