<svg id="SvgjsSvg1019" width="288" height="288" xmlns="http://www.w3.org/2000/svg" version="1.1" xmlns:xlink="http://www.w3.org/1999/xlink" xmlns:svgjs="http://svgjs.com/svgjs"><defs id="SvgjsDefs1020"></defs><g id="SvgjsG1021"><svg xmlns="http://www.w3.org/2000/svg" viewBox="0 0 64 64" width="288" height="288"><path style="line-height:normal;-inkscape-font-specification:Sans;text-indent:0;text-align:start;text-decoration-line:none;text-transform:none;block-progression:tb;marker:none" d="M24 0C10.751 0 0 10.75 0 24s10.752 24 24 24 24-10.75 24-24S37.249 0 24 0zm0 1.008c12.704 0 22.992 10.287 22.992 22.992S36.704 46.992 24 46.992 1.008 36.705 1.008 24 11.296 1.008 24 1.008zM9.344 11a.515.515 0 0 0-.344.5v2c0 .262.238.5.5.5h.5v17H9v1h30v-1h-1V14h.5a.52.52 0 0 0 .5-.5v-2a.52.52 0 0 0-.5-.5h-10a.41.41 0 0 0-.156 0 .515.515 0 0 0-.344.5v2c0 .262.238.5.5.5h.5v1H19v-1h.5a.52.52 0 0 0 .5-.5v-2a.52.52 0 0 0-.5-.5h-10a.41.41 0 0 0-.156 0zM10 12h9v1h-9v-1zm19 0h9v1h-9v-1zm-18 2h7v1h-4v1h.5v1H14v1h.5v.5a.516.516 0 0 0 .375.5H14v1h1v-1h1v12h-5V14zm19 0h7v17h-5V19h.5a.52.52 0 0 0 .5-.5V18h1v-1h-1v-1h1v-1h-1v.406a.516.516 0 0 0-.5-.406H30v-1zm-18 1v1h1v-1h-1zm23 0v1h1v-1h-1zm-19.5 1H32v2H15.5v-2zM12 17v1h1v-1h-1zm23 0v1h1v-1h-1zm-23 2v1h1v-1h-1zm5 0h14v12h-3v-6.5a.52.52 0 0 0-.5-.5h-7a.41.41 0 0 0-.156 0 .515.515 0 0 0-.344.5V31h-3V19zm16 0v1h1v-1h-1zm2 0v1h1v-1h-1zm-23 2v1h1v-1h-1zm2 0v1h1v-1h-1zm19 0v1h1v-1h-1zm2 0v1h1v-1h-1zm-23 2v1h1v-1h-1zm2 0v1h1v-1h-1zm19 0v1h1v-1h-1zm2 0v1h1v-1h-1zm-23 2v1h1v-1h-1zm2 0v1h1v-1h-1zm7 0h2.5v6H21v-6zm3.5 0H27v6h-2.5v-6zm8.5 0v1h1v-1h-1zm2 0v1h1v-1h-1zm-23 2v1h1v-1h-1zm2 0v1h1v-1h-1zm19 0v1h1v-1h-1zm2 0v1h1v-1h-1zm-23 2v1h1v-1h-1zm2 0v1h1v-1h-1zm19 0v1h1v-1h-1zm2 0v1h1v-1h-1zm-16 4v1h10v-1H19zm-2 2v1h14v-1H17z" color="#000" font-family="Sans" font-weight="400" overflow="visible" fill="#767fad" class="color000 svgShape"></path></svg></g></svg>