<svg xmlns="http://www.w3.org/2000/svg" data-name="Layer 1" viewBox="0 0 128 128"><path d="M8 30a2.006 2.006 0 0 0-2 2h4a2.006 2.006 0 0 0-2-2zM4 52h32V36H4a3.999 3.999 0 0 0-4 4v8a3.999 3.999 0 0 0 4 4zm115-22a2.006 2.006 0 0 0-2 2h4a2.006 2.006 0 0 0-2-2zm5 6H92v16h32a3.999 3.999 0 0 0 4-4v-8a3.999 3.999 0 0 0-4-4zm-5 46a1.996 1.996 0 0 0-1.73 1h3.46a1.996 1.996 0 0 0-1.73-1zm5 5H97v16h27a3.999 3.999 0 0 0 4-4v-8a3.999 3.999 0 0 0-4-4zM6 58h4a2 2 0 0 0-4 0zm30 4H4a3.999 3.999 0 0 0-4 4v8a3.999 3.999 0 0 0 4 4h29.88A8.587 8.587 0 0 1 36 76.71zm83-6a2.006 2.006 0 0 0-2 2h4a2.006 2.006 0 0 0-2-2zm5 6H92v14.71A8.587 8.587 0 0 1 94.12 78H124a3.999 3.999 0 0 0 4-4v-8a3.999 3.999 0 0 0-4-4zM50 74v-4a2 2 0 0 1 4 0v4a2.006 2.006 0 0 1-2 2h12a2.006 2.006 0 0 1-2-2v-4a2 2 0 0 1 4 0v4a2.006 2.006 0 0 1-2 2h12a2.006 2.006 0 0 1-2-2v-4a2 2 0 0 1 4 0v4a2.006 2.006 0 0 1-2 2h12V4a3.999 3.999 0 0 0-4-4H44a3.999 3.999 0 0 0-4 4v72h12a2.006 2.006 0 0 1-2-2zm24-64a2 2 0 0 1 4 0v4a2 2 0 0 1-4 0zm0 12a2 2 0 0 1 4 0v4a2 2 0 0 1-4 0zm0 12a2 2 0 0 1 4 0v4a2 2 0 0 1-4 0zm0 12a2 2 0 0 1 4 0v4a2 2 0 0 1-4 0zm0 12a2 2 0 0 1 4 0v4a2 2 0 0 1-4 0zM62 10a2 2 0 0 1 4 0v4a2 2 0 0 1-4 0zm0 12a2 2 0 0 1 4 0v4a2 2 0 0 1-4 0zm0 12a2 2 0 0 1 4 0v4a2 2 0 0 1-4 0zm0 12a2 2 0 0 1 4 0v4a2 2 0 0 1-4 0zm0 12a2 2 0 0 1 4 0v4a2 2 0 0 1-4 0zM50 10a2 2 0 0 1 4 0v4a2 2 0 0 1-4 0zm0 12a2 2 0 0 1 4 0v4a2 2 0 0 1-4 0zm0 12a2 2 0 0 1 4 0v4a2 2 0 0 1-4 0zm0 12a2 2 0 0 1 4 0v4a2 2 0 0 1-4 0zm0 12a2 2 0 0 1 4 0v4a2 2 0 0 1-4 0zm38.54 22H39.46A4.25 4.25 0 0 0 35 84v42a2.006 2.006 0 0 0 2 2h54a2.006 2.006 0 0 0 2-2V84a4.25 4.25 0 0 0-4.46-4zm.46 44H39V84.13L88.54 84a.782.782 0 0 1 .46.13z"/><path d="M64 90a2 2 0 0 0-2 2v24a2 2 0 0 0 4 0V92a2 2 0 0 0-2-2zm-8 10a2 2 0 0 0-2 2v4a2 2 0 0 0 4 0v-4a2 2 0 0 0-2-2zm16 0a2 2 0 0 0-2 2v4a2 2 0 0 0 4 0v-4a2 2 0 0 0-2-2zM8 82a1.996 1.996 0 0 0-1.73 1h3.46A1.996 1.996 0 0 0 8 82zm-4 21h27V87H4a3.999 3.999 0 0 0-4 4v8a3.999 3.999 0 0 0 4 4zm2.27 5h3.46a1.996 1.996 0 0 0-3.46 0zm24.82 18.98A5.333 5.333 0 0 1 31 126v-14H4a3.999 3.999 0 0 0-4 4v8a3.999 3.999 0 0 0 4 4h27.35a5.91 5.91 0 0 1-.25-.94.221.221 0 0 1-.01-.08zM119 107a1.996 1.996 0 0 0-1.73 1h3.46a1.996 1.996 0 0 0-1.73-1zm5 5H97v14a5.333 5.333 0 0 1-.09.98.221.221 0 0 1-.01.08 5.91 5.91 0 0 1-.25.94H124a3.999 3.999 0 0 0 4-4v-8a3.999 3.999 0 0 0-4-4z"/></svg>