<svg xmlns="http://www.w3.org/2000/svg" data-name="Layer 1" viewBox="0 0 512 512"><path d="M121.5,394h-30A22.52,22.52,0,0,0,69,416.5v30A22.52,22.52,0,0,0,91.5,469h30A22.52,22.52,0,0,0,144,446.5v-30A22.52,22.52,0,0,0,121.5,394Zm7.5,52.5a7.5,7.5,0,0,1-7.5,7.5h-30a7.5,7.5,0,0,1-7.5-7.5v-30a7.5,7.5,0,0,1,7.5-7.5h30a7.5,7.5,0,0,1,7.5,7.5ZM166.5,244h66a7.5,7.5,0,0,0,0-15h-66a7.5,7.5,0,0,0,0,15Zm0-105h126a7.5,7.5,0,0,0,0-15h-126a7.5,7.5,0,0,0,0,15Zm0,75h186a7.5,7.5,0,0,0,0-15h-186a7.5,7.5,0,0,0,0,15Zm0,105h156a7.5,7.5,0,0,0,0-15h-156a7.5,7.5,0,0,0,0,15Zm0,105h91.69a7.5,7.5,0,1,0,0-15H166.5a7.5,7.5,0,0,0,0,15Zm243.55-.49-11.24,11.24v-57a7.5,7.5,0,0,0-15,0v57l-11.24-11.24A7.5,7.5,0,1,0,362,434.12l24,24,.56.5.24.17.35.27.31.18a3.37,3.37,0,0,0,.32.19l.32.16.35.16.32.11a2.32,2.32,0,0,0,.37.13l.32.09.39.09.38.06.34.05c.25,0,.5,0,.74,0s.5,0,.74,0l.34-.05c.13,0,.26,0,.39-.06s.25-.06.38-.09l.33-.09a2.72,2.72,0,0,0,.37-.13l.32-.11.34-.16.33-.16.32-.19.31-.18.35-.27.23-.17c.2-.16.38-.33.56-.5l24-24a7.5,7.5,0,0,0-10.61-10.61ZM277.52,334h-111a7.5,7.5,0,0,0,0,15h111a7.5,7.5,0,0,0,0-15ZM459.68,347A96,96,0,0,0,410,320.42V102.5a6.28,6.28,0,0,0,0-.75c0-.18,0-.36-.08-.54a1.25,1.25,0,0,0,0-.19c0-.21-.1-.43-.16-.64a.14.14,0,0,0,0-.06c-.06-.22-.14-.43-.22-.64,0,0,0,0,0-.05-.08-.2-.18-.39-.27-.58l-.05-.09c-.09-.17-.19-.33-.29-.49l-.09-.14c-.1-.15-.2-.29-.31-.43a1.83,1.83,0,0,0-.13-.16,5.14,5.14,0,0,0-.38-.42l-.11-.12-95-95-.12-.11c-.14-.13-.27-.26-.42-.38l-.16-.13-.43-.31-.14-.09c-.16-.1-.32-.2-.49-.29L311,.84c-.19-.09-.38-.19-.58-.27l-.05,0c-.21-.08-.42-.16-.63-.22l-.07,0c-.21-.06-.43-.12-.64-.16a1.25,1.25,0,0,0-.19,0L308.25,0a6.28,6.28,0,0,0-.75,0H61.5A37.54,37.54,0,0,0,24,37.5v437A37.54,37.54,0,0,0,61.5,512h326a7.89,7.89,0,0,0,.84-.05c1,0,2,.05,3,.05a96.68,96.68,0,0,0,68.37-165ZM315,25.61,384.39,95H337.5A22.52,22.52,0,0,1,315,72.5ZM61.5,497A22.52,22.52,0,0,1,39,474.5V37.5A22.52,22.52,0,0,1,61.5,15H300V72.5A37.28,37.28,0,0,0,307.52,95h-141a7.5,7.5,0,0,0,0,15H395V318.7c-1.23,0-2.45-.07-3.69-.07A96.68,96.68,0,0,0,323,483.68,97.73,97.73,0,0,0,339.53,497Zm387.57-23.93A81.67,81.67,0,1,1,473,415.31,81.13,81.13,0,0,1,449.07,473.07ZM121.5,79h-30A22.52,22.52,0,0,0,69,101.5v30A22.52,22.52,0,0,0,91.5,154h30A22.52,22.52,0,0,0,144,131.5v-30A22.52,22.52,0,0,0,121.5,79Zm7.5,52.5a7.5,7.5,0,0,1-7.5,7.5h-30a7.5,7.5,0,0,1-7.5-7.5v-30A7.5,7.5,0,0,1,91.5,94h30a7.5,7.5,0,0,1,7.5,7.5ZM258.59,439H166.5a7.5,7.5,0,0,0,0,15h92.09a7.5,7.5,0,0,0,0-15ZM121.5,184h-30A22.52,22.52,0,0,0,69,206.5v30A22.52,22.52,0,0,0,91.5,259h30A22.52,22.52,0,0,0,144,236.5v-30A22.52,22.52,0,0,0,121.5,184Zm7.5,52.5a7.5,7.5,0,0,1-7.5,7.5h-30a7.5,7.5,0,0,1-7.5-7.5v-30a7.5,7.5,0,0,1,7.5-7.5h30a7.5,7.5,0,0,1,7.5,7.5ZM121.5,289h-30A22.52,22.52,0,0,0,69,311.5v30A22.52,22.52,0,0,0,91.5,364h30A22.52,22.52,0,0,0,144,341.5v-30A22.52,22.52,0,0,0,121.5,289Zm7.5,52.5a7.5,7.5,0,0,1-7.5,7.5h-30a7.5,7.5,0,0,1-7.5-7.5v-30a7.5,7.5,0,0,1,7.5-7.5h30a7.5,7.5,0,0,1,7.5,7.5Z"/></svg>