<svg id="SvgjsSvg1001" width="288" height="288" xmlns="http://www.w3.org/2000/svg" version="1.1" xmlns:xlink="http://www.w3.org/1999/xlink" xmlns:svgjs="http://svgjs.com/svgjs"><defs id="SvgjsDefs1002"></defs><g id="SvgjsG1008"><svg xmlns="http://www.w3.org/2000/svg" viewBox="0 0 32 32" width="288" height="288"><path fill-rule="evenodd" d="M16 0A16 16 0 0 0 0 16a16 16 0 0 0 16 16 16 16 0 0 0 16-16A16 16 0 0 0 16 0zm-.014 8a.501.501 0 0 1 .36.148l4.646 4.678V11.07a.5.5 0 0 1 .492-.508.5.5 0 0 1 .508.508v2.762l1.701 1.713h-.164a.501.501 0 0 1-.045 1.002.501.501 0 0 1-.355-.147l-1.137-1.144V23.5a.5.5 0 0 1-.5.5h-11a.5.5 0 0 1-.5-.5v-8.246L8.854 16.4a.501.501 0 1 1-.711-.707l7.492-7.545A.501.501 0 0 1 15.986 8zm.004 1.213-4.998 5.033V23h3v-4.5a.5.5 0 0 1 .5-.5h3a.5.5 0 0 1 .5.5V23h3v-8.75L15.99 9.213zM15.992 12c1.099 0 2 .901 2 2s-.901 2-2 2c-1.098 0-2-.901-2-2s.902-2 2-2zm0 1c-.558 0-1 .442-1 1s.442 1 1 1 1-.442 1-1-.442-1-1-1zm-1 6v4h2v-4h-2z" fill="#f7f7f7" class="color000 svgShape"></path></svg></g></svg>