<svg id="SvgjsSvg1017" width="288" height="288" xmlns="http://www.w3.org/2000/svg" version="1.1" xmlns:xlink="http://www.w3.org/1999/xlink" xmlns:svgjs="http://svgjs.com/svgjs"><defs id="SvgjsDefs1018"></defs><g id="SvgjsG1019"><svg xmlns="http://www.w3.org/2000/svg" viewBox="0 0 25 25" width="288" height="288"><path fill-rule="evenodd" d="M12.5 0A12.5 12.5 0 0 0 0 12.5 12.5 12.5 0 0 0 12.5 25 12.5 12.5 0 0 0 25 12.5 12.5 12.5 0 0 0 12.5 0zm4.13 7a1.1 1.1 0 0 1 .78.32l1.272 1.27a1.111 1.111 0 0 1 0 1.558l-.967.965-.371.371-6.444 6.444-4.248 1.416 1.416-4.248 6.46-6.428-.012-.012 1.336-1.336A1.1 1.1 0 0 1 16.63 7zm0 .992c-.023 0-.046.012-.07.035l-.982.98 1.426 1.405.97-.97c.047-.046.047-.1 0-.145l-1.27-1.27a.105.105 0 0 0-.073-.035zm-1.747 1.735-5.46 5.433 1.417 1.416 5.455-5.457-1.412-1.392zM8.828 15.98l-.594 1.784 1.786-.596-1.192-1.188z" fill="#f1f1f1" class="color000 svgShape"></path></svg></g></svg>