<svg id="SvgjsSvg1011" width="288" height="288" xmlns="http://www.w3.org/2000/svg" version="1.1" xmlns:xlink="http://www.w3.org/1999/xlink" xmlns:svgjs="http://svgjs.com/svgjs"><defs id="SvgjsDefs1012"></defs><g id="SvgjsG1013"><svg xmlns="http://www.w3.org/2000/svg" viewBox="0 0 64 64" width="288" height="288"><circle cx="32" cy="32" r="32" fill="#ffffff" class="colore24b4b svgShape"></circle><path fill="#8089ff" d="m49.29 18.92-6.99-6.99c-.27-.27-.64-.42-1.03-.42H23.4c-.8 0-1.45.65-1.45 1.45v3.31h-5.28c-1.31 0-2.38 1.07-2.38 2.38v31.47c0 1.31 1.07 2.38 2.38 2.38h24.86c1.31 0 2.38-1.07 2.38-2.38v-4.24h4.35c.8 0 1.45-.65 1.45-1.45V19.94c0-.38-.15-.75-.42-1.02zM31.02 33.3h9.62a1.451 1.451 0 0 1 0 2.9h-9.62a1.451 1.451 0 0 1 0-2.9zm-1.45-4.62c0-.8.65-1.45 1.45-1.45h9.62a1.451 1.451 0 0 1 0 2.9h-9.62c-.8.01-1.45-.64-1.45-1.45zm-6.17 17.2h15.75v1.86h-20.1V21.03h2.9v23.4c0 .8.65 1.45 1.45 1.45zm17.24-21.81h-9.62a1.451 1.451 0 0 1 0-2.9h9.62a1.451 1.451 0 0 1 0 2.9z" class="colorfff svgShape"></path></svg></g></svg>